<!-- by TradingView --><svg width="56" height="56" viewBox="0 0 56 56" xmlns="http://www.w3.org/2000/svg"><path fill="#F0F3FA" d="M0 0h56v56H0z"/><path fill-rule="evenodd" d="M45 28a17 17 0 1 1-33.8-2.6l.41-.25a98.42 98.42 0 0 0 1.45-.62c.23-.11.41-.2.56-.2.19 0-.26.27-.5.4h.76c-.26.3-.77 1.64-.77 4.61 0 3.7 1.74 7.92 2.53 9.3.8 1.4 1.3.61.82-.35-.47-.96-1.04-3.3-1.17-3.84-.12-.53.21-.4.44-.23.16.12.1-.66.04-1.27a8.85 8.85 0 0 1-.04-.6c0-.2-.05-.57-.11-.96a9.85 9.85 0 0 1-.12-1.08v-1.25c0-.15-.05-.23-.1-.31-.04-.08-.08-.14-.08-.25l.01-.3c.01-.33.03-.77 0-.88l-.07-.14a1.52 1.52 0 0 1-.17-.63c0-.26.07-.25.25-.22l.16.02c.2.02.2-.82.2-1.42 0-.3 0-.55.03-.6l.01-.03c.07-.14.13-.25.32-.25.2 0 .39 0 1.05-.23.44-.16.48-.12.6 0 .05.06.13.14.3.23.34.18.47.04.65-.17.07-.09.16-.18.27-.27.1-.07.16-.14.21-.2.15-.15.16-.16.38.2.22.39.63.16.81 0-.48 2.05-1.33 6.62-.81 8.54.4 1.5.77 1.83 1.44 2.44.4.37.92.84 1.62 1.73 1.7 2.16 4.03 2.04 5.07 1.98h.25c.8-.03.87-.01 1.53.16l.12.04.1.02c.52.14.56.11.61.07.03-.03.07-.07.25-.07.46 0 1.4-.84 2.02-1.4.38-.36.52-.4.71-.46.12-.04.26-.08.5-.21.32-.18.62-.4.94-.65.27-.2.57-.43.92-.65.77-.49 1-1.05 1.1-1.33.1-.29.74-1.23 1.02-1.46.28-.23.64-.13.7.23.05.36.07.46.45.66.25.13.28.19.36.3l.2.27c.17.17.18.3.2.42 0 .12.02.22.14.34.16.17.28.24.45.34l.34.23c.41.28.56.35.82-.41.2-.6.09-2.19.03-3.05l-.03-.53.01-.45c.02-.49.05-1.19-.01-1.65-.04-.35.21-1.02.47-1.69.2-.55.42-1.1.48-1.5.09-.64-.12-.83-.37-1.06-.1-.09-.22-.19-.32-.33a4.54 4.54 0 0 0-.46-.54.35.35 0 0 0-.49-.51l-.12-.14a.35.35 0 0 0 .3-.5.35.35 0 0 0-.65.03l-.15-.2-.24-.33a3.92 3.92 0 0 0 3.17-2.3l.19.37a.35.35 0 1 0 .26.53l.06.15a.35.35 0 0 0 .25.58l.24.61a.28.28 0 1 0 .15.46c.55 1.66.85 3.45.85 5.31Zm-2.24-8.45a3.54 3.54 0 1 1-3.92-4.65l.33.29a3.21 3.21 0 1 0 3.36 3.98l.23.38Zm-.86-1.34a2.49 2.49 0 1 1-1.89-2.24c.26.26.5.52.75.8a2.11 2.11 0 1 0 .5.59c.22.27.43.56.64.85Zm-3.45-3.62c-.21-.17-.43-.33-.65-.48a.35.35 0 0 1-.56.35.35.35 0 0 1 .16-.63l-.04-.02-.34.12a.35.35 0 0 1-.26.1l-.4.15a.36.36 0 0 1-.43.15l-.13.05a.35.35 0 1 1-.65.26l-.67.27a.28.28 0 0 1-.48.25c-.14.1-.29.13-.45.16-.29.06-.63.13-1.15.65-.81.81-1.33 1.22-2.32 1.84-.6.37-1.02.84-1.35 1.22-.21.24-.39.45-.57.57-.46.3-3.56 3.73-4.3 6.26-.52 1.81-.78 2.37-1 2.85-.1.2-.18.38-.28.63-.23.62-.24.86-.25 1.38 0 .2 0 .47-.03.82-.07 1.2-.07 3.84 3.12 3.81 2.56-.02 4.9-1.25 5.76-1.87.25-.3.88-.96 1.35-1.12.47-.17.76-.3.85-.36-.6-.34-1.81-1.1-1.87-1.4-.08-.39-.33-1.26-.59-1.26-.25 0-.77-.23-.25-.84.5-.62 5.5-4.2 5.93-4.45l.2-.13a17.93 17.93 0 0 0 .43-.33.35.35 0 1 1 .53-.45c.38-.3.77-.64 1.05-.88a3.92 3.92 0 0 1-.36-7.67Zm-26.28 9.88c-.28.15-.62.33-.9.52l.11-.6a3.2 3.2 0 0 1 1.25-.34c.32 0 0 .17-.46.42Zm1.04-2.28-1.44.73A17 17 0 0 1 33.13 11.8c-.18.23-.14.44.14.44.2 0 .78.04 1.28.08l.37.16c-.47.1-1.2.37-1.9.63-.98.36-1.88.69-1.82.49.1-.3.83-.72 1.29-.98l.32-.2c.26-.18-1.58-.23-4.65 1.38-2.46 1.3-4.38 4.04-5.04 5.25-2.62-1.94-10.69 3.15-10.49 3.15h.58Zm23.3-7.4a.35.35 0 1 0 .42-.56.35.35 0 0 0-.42.56Zm-.06.5a.35.35 0 1 1-.56-.43.35.35 0 0 1 .56.42Zm-.94.84a.35.35 0 1 0 .35-.61.35.35 0 0 0-.35.61Zm-.25-.55a.35.35 0 1 1-.61-.35.35.35 0 0 1 .61.35Zm-1.04 2.02a.35.35 0 1 0 .15-.69.35.35 0 0 0-.15.7Zm-.5-.47a.28.28 0 1 1-.53-.12.28.28 0 0 1 .54.12Zm-.92-.2a.21.21 0 1 1-.42-.1.21.21 0 0 1 .42.1Zm2.44.84a.35.35 0 1 0-.27-.01.35.35 0 1 0 .27.01Zm-1 .67a.35.35 0 1 0 0-.7.35.35 0 0 0 0 .7Zm-.58-.35a.28.28 0 1 1-.55 0 .28.28 0 0 1 .55 0Zm-.95 0a.21.21 0 1 1-.43 0 .21.21 0 0 1 .43 0Zm2.45 1.24a.35.35 0 1 0-.11-.7.35.35 0 0 0 .11.7Zm-.54-.26a.35.35 0 1 1-.7.12.35.35 0 0 1 .7-.12Zm-1.15.48a.28.28 0 1 0-.09-.55.28.28 0 0 0 .1.55Zm-.88.09a.21.21 0 1 0-.08-.43.21.21 0 0 0 .08.43Zm1.9.7a.35.35 0 1 0-.23-.66.35.35 0 0 0 .23.67Zm-.66-.13a.28.28 0 1 1-.52.19.28.28 0 0 1 .52-.19Zm-.9.32a.21.21 0 1 1-.4.15.21.21 0 0 1 .4-.15Zm2.57-.92a.35.35 0 1 1-.66.24.35.35 0 0 1 .66-.24Zm.16 1.2a.35.35 0 1 0-.35-.6.35.35 0 0 0 .35.6Zm-.6-.06a.35.35 0 1 1-.61.35.35.35 0 0 1 .61-.35Zm-.91.84a.28.28 0 1 0-.28-.48.28.28 0 0 0 .28.48Zm-.8.39a.21.21 0 1 0-.22-.37.21.21 0 0 0 .22.37Zm2.13.01a.35.35 0 1 0-.4-.58.35.35 0 0 0 .4.58Zm-.68.03a.28.28 0 1 1-.45.31.28.28 0 0 1 .45-.3Zm-.78.54a.21.21 0 1 1-.36.24.21.21 0 0 1 .36-.24Zm2.25-1.53a.35.35 0 1 1-.58.4.35.35 0 0 1 .58-.4Zm-.18 1.2a.35.35 0 1 1-.52.47.35.35 0 0 1 .52-.48Zm-.71 1.01a.28.28 0 1 0-.37-.4.28.28 0 0 0 .37.4Zm-.7.56a.21.21 0 1 0-.29-.32.21.21 0 0 0 .3.32Zm2-1.65a.35.35 0 1 0-.47-.52.35.35 0 0 0 .48.52Zm.22 1.01a.35.35 0 1 0-.56-.42.35.35 0 0 0 .56.42Zm-.63.26a.28.28 0 1 1-.33.44.28.28 0 0 1 .33-.44Zm-.57.76a.21.21 0 1 1-.25.34.21.21 0 0 1 .25-.34Zm1.64-2.19a.35.35 0 1 1-.43.57.35.35 0 0 1 .43-.57Zm.84.77a.35.35 0 1 0-.6-.35.35.35 0 0 0 .6.35Zm3.53.3a.35.35 0 1 1 .38.59.35.35 0 0 1-.38-.6Zm.88.87a.28.28 0 1 0-.46.3.28.28 0 0 0 .46-.3Zm.43.78a.21.21 0 1 0-.36.23.21.21 0 0 0 .36-.23Zm-1.28-2.26a.35.35 0 1 0-.6.38.35.35 0 0 0 .6-.38Zm1.13-.08a.35.35 0 1 0-.54.46.35.35 0 0 0 .54-.46Zm.11.68a.28.28 0 1 1 .36.42.28.28 0 0 1-.36-.42Zm.61.72a.21.21 0 1 1 .28.33.21.21 0 0 1-.28-.33Zm-1.76-2.09a.35.35 0 1 1 .46.54.35.35 0 0 1-.46-.54Zm1.08-.58a.35.35 0 1 0-.47.53.35.35 0 0 0 .47-.53Zm.13.6a.35.35 0 1 1 .53.46.35.35 0 0 1-.53-.47Z" fill="#136535"/><path d="M39.18 13.68c-.2.1-1.04-.13-1.17-.19h-2.37c-.28 0-.64.47-.8.73-.14.27-.91.53-1.72.98-.81.46-1.53 1.2-3.79 2.7-2.26 1.49-3.07 3.44-3.84 4.07-.77.62-2.06 3.9-2.28 4.53-.23.64-1.04 2.1-1.36 5.09-.32 3 1.26 4.1 3.83 4.1 2.56 0 4.84-1.24 5.2-1.24.35 0 .48-.37.88-1.05s.98-.44 1.32-.64c.34-.21 1.1-.3 1.17-.66.07-.36-.36-.36-.66-.36-.3 0-.5-.22-.75-.48-.25-.27-.25-.42-.74-.63-.5-.2-.26-.96-.34-1.28-.08-.32-.83-.23-.89-.47-.05-.25 1.02-1.02 1.5-1.28.46-.27 3.51-2.47 4.78-3.3 1.26-.83 1.58-1.7 2.2-1.62.62.08.6.4.72.8.1.39 1.5 1.25 1.8 1.65.3.4-.15 1.5-.45 2.47-.3.96-.37.94-.49 1.28-.11.34.2.58.2.79 0 .2 0 .36-.4.58-.42.23-.02.72.2.74.23.02 0 .3 0 .75s.2 1.62.2 1.87c0 .24 0 1.05-.2 1.28-.19.22-.13-.08-.43-.44s-.4 0-.55-.13c-.15-.13-.19-.71-.34-1.1-.15-.37-.64-.31-.88-.46-.25-.15-.1-.7-.34-1.02-.25-.32-.85.34-1.24.72-.4.37-.55.71-.89 1.15-.34.43-1.92 2.01-2.37 2.2-.45.19-.32.17-.81.49-.5.32-.5.45-.72.49-.22.04.2-.27 0-.5-.19-.22-1.75 1.12-2.24 1.4-.49.28-2.7.59-4.44 0-1.76-.58-4.45-3.03-5.03-4.18a11.86 11.86 0 0 1-.85-5.91c.32-1.98 1.66-5.82 1.9-6.07.25-.24.57-1 .96-1.18.4-.2.8-.6.89-1.02.1-.42-.3-.32.37-1.13.68-.81 3.98-3.77 4.07-3.82.1-.06.96-.55 1.64-.89.68-.34-.17.81-.68 1.53-.5.71.06.3.85 0 .8-.3 2.13-1.21 2.8-1.53.69-.32.25.19.69.19.43 0 .28-.19.64-.57.35-.37.62 0 .92 0 .3 0 .54-.13.7 0 .15.13.49.23.56 0 .08-.22.34-.34.55 0 .2.34.28.08.41 0 .13-.07.32-.3.94-.34.62-.03 1.38.81 1.17.9Z" fill="#FD0C1F"/><path d="M34.83 16.33a.35.35 0 1 1-.66-.25.35.35 0 0 1 .66.25Zm-1.23-.17a.28.28 0 1 0 .2-.52.28.28 0 0 0-.2.52Zm-.81-.38a.21.21 0 1 0 .15-.4.21.21 0 0 0-.15.4Zm2.37 1.06a.35.35 0 1 0 .25-.66.35.35 0 0 0-.25.66Z" fill="#F0F3FA"/></svg>